<svg width="25" height="25" viewBox="0 0 25 25" fill="none" xmlns="http://www.w3.org/2000/svg">
<path d="M12.5 1.5625C9.61009 1.59757 6.84842 2.76116 4.80479 4.80479C2.76116 6.84842 1.59757 9.61009 1.5625 12.5C1.59757 15.3899 2.76116 18.1516 4.80479 20.1952C6.84842 22.2388 9.61009 23.4024 12.5 23.4375C15.3899 23.4024 18.1516 22.2388 20.1952 20.1952C22.2388 18.1516 23.4024 15.3899 23.4375 12.5C23.4024 9.61009 22.2388 6.84842 20.1952 4.80479C18.1516 2.76116 15.3899 1.59757 12.5 1.5625ZM18.75 13.2812H13.2812V18.75H11.7188V13.2812H6.25V11.7188H11.7188V6.25H13.2812V11.7188H18.75V13.2812Z" fill="#333333"/>
</svg>
