<svg width="50" height="50" viewBox="0 0 50 50" fill="none" xmlns="http://www.w3.org/2000/svg">
<g clip-path="url(#clip0_823_2673)">
<path d="M4.16667 37.75C3.02083 37.75 2.04028 37.3424 1.225 36.5271C0.409722 35.7118 0.00138889 34.7306 0 33.5833V4.41667C0 3.27083 0.408333 2.29028 1.225 1.475C2.04167 0.659722 3.02222 0.251389 4.16667 0.25H45.8333C46.9792 0.25 47.9604 0.658333 48.7771 1.475C49.5938 2.29167 50.0014 3.27222 50 4.41667V33.5833C50 34.7292 49.5924 35.7104 48.7771 36.5271C47.9618 37.3438 46.9806 37.7514 45.8333 37.75H4.16667ZM33.125 33.5833H45.8333V4.41667H4.16667V33.5833H4.375C5.83333 30.9792 7.84722 28.9396 10.4167 27.4646C12.9861 25.9896 15.7639 25.2514 18.75 25.25C21.7361 25.2486 24.5139 25.9868 27.0833 27.4646C29.6528 28.9424 31.6667 30.9819 33.125 33.5833ZM18.75 23.1667C20.4861 23.1667 21.9618 22.559 23.1771 21.3438C24.3924 20.1285 25 18.6528 25 16.9167C25 15.1806 24.3924 13.7049 23.1771 12.4896C21.9618 11.2743 20.4861 10.6667 18.75 10.6667C17.0139 10.6667 15.5382 11.2743 14.3229 12.4896C13.1076 13.7049 12.5 15.1806 12.5 16.9167C12.5 18.6528 13.1076 20.1285 14.3229 21.3438C15.5382 22.559 17.0139 23.1667 18.75 23.1667ZM39.5833 31.5L43.75 27.3333L40.625 23.1667H37.1875C36.9792 22.5417 36.8056 21.8736 36.6667 21.1625C36.5278 20.4514 36.4583 19.7306 36.4583 19C36.4583 18.2694 36.5278 17.5667 36.6667 16.8917C36.8056 16.2167 36.9792 15.5306 37.1875 14.8333H40.625L43.75 10.6667L39.5833 6.5C37.7083 7.95833 36.1979 9.80764 35.0521 12.0479C33.9062 14.2882 33.3333 16.6056 33.3333 19C33.3333 21.3944 33.9062 23.7125 35.0521 25.9542C36.1979 28.1958 37.7083 30.0444 39.5833 31.5ZM9.47917 33.5833H28.0208C26.8403 32.2639 25.4424 31.2396 23.8271 30.5104C22.2118 29.7812 20.5194 29.4167 18.75 29.4167C16.9806 29.4167 15.2965 29.7812 13.6979 30.5104C12.0993 31.2396 10.6931 32.2639 9.47917 33.5833ZM18.75 19C18.1597 19 17.6653 18.8 17.2667 18.4C16.8681 18 16.6681 17.5056 16.6667 16.9167C16.6653 16.3278 16.8653 15.8333 17.2667 15.4333C17.6681 15.0333 18.1625 14.8333 18.75 14.8333C19.3375 14.8333 19.8326 15.0333 20.2354 15.4333C20.6382 15.8333 20.8375 16.3278 20.8333 16.9167C20.8292 17.5056 20.6292 18.0007 20.2333 18.4021C19.8375 18.8035 19.3431 19.0028 18.75 19Z" fill="#01255A"/>
</g>
<defs>
<clipPath id="clip0_823_2673">
<rect width="50" height="50" fill="white"/>
</clipPath>
</defs>
</svg>
