<svg width="50" height="50" viewBox="0 0 50 50" fill="none" xmlns="http://www.w3.org/2000/svg">
<path d="M10.4167 43.75C9.82639 43.75 9.33194 43.55 8.93333 43.15C8.53472 42.75 8.33472 42.2556 8.33333 41.6667V39.5833H6.25V31.25C6.25 30.6597 6.45 30.1653 6.85 29.7667C7.25 29.3681 7.74444 29.1681 8.33333 29.1667H10.4167V14.5833C10.4167 12.2917 11.2326 10.3299 12.8646 8.69792C14.4965 7.06597 16.4583 6.25 18.75 6.25C21.0417 6.25 23.0035 7.06597 24.6354 8.69792C26.2674 10.3299 27.0833 12.2917 27.0833 14.5833V35.4167C27.0833 36.5625 27.4917 37.5437 28.3083 38.3604C29.125 39.1771 30.1056 39.5847 31.25 39.5833C32.3944 39.5819 33.3757 39.1743 34.1937 38.3604C35.0118 37.5465 35.4194 36.5653 35.4167 35.4167V20.8333H33.3333C32.7431 20.8333 32.2486 20.6333 31.85 20.2333C31.4514 19.8333 31.2514 19.3389 31.25 18.75V10.4167H33.3333V8.33333C33.3333 7.74306 33.5333 7.24861 33.9333 6.85C34.3333 6.45139 34.8278 6.25139 35.4167 6.25H39.5833C40.1736 6.25 40.6687 6.45 41.0687 6.85C41.4687 7.25 41.6681 7.74444 41.6667 8.33333V10.4167H43.75V18.75C43.75 19.3403 43.55 19.8354 43.15 20.2354C42.75 20.6354 42.2556 20.8347 41.6667 20.8333H39.5833V35.4167C39.5833 37.7083 38.7674 39.6701 37.1354 41.3021C35.5035 42.934 33.5417 43.75 31.25 43.75C28.9583 43.75 26.9965 42.934 25.3646 41.3021C23.7326 39.6701 22.9167 37.7083 22.9167 35.4167V14.5833C22.9167 13.4375 22.509 12.4569 21.6937 11.6417C20.8785 10.8264 19.8972 10.4181 18.75 10.4167C17.6028 10.4153 16.6222 10.8236 15.8083 11.6417C14.9944 12.4597 14.5861 13.4403 14.5833 14.5833V29.1667H16.6667C17.2569 29.1667 17.7521 29.3667 18.1521 29.7667C18.5521 30.1667 18.7514 30.6611 18.75 31.25V39.5833H16.6667V41.6667C16.6667 42.2569 16.4667 42.7521 16.0667 43.1521C15.6667 43.5521 15.1722 43.7514 14.5833 43.75H10.4167Z" fill="white"/>
</svg>
