<svg width="50" height="50" viewBox="0 0 50 50" fill="none" xmlns="http://www.w3.org/2000/svg">
<path d="M14.8021 31.6876C16.1639 32.2274 17.2929 33.2282 17.9921 34.5154C18.6913 35.8027 18.9163 37.2945 18.6279 38.7307C18.3394 40.1669 17.5558 41.4562 16.4139 42.3737C15.2719 43.2911 13.844 43.7784 12.3794 43.7506C10.9148 43.7228 9.50648 43.1816 8.40017 42.2214C7.29387 41.2612 6.55984 39.9431 6.32616 38.497C6.09249 37.0509 6.37402 35.5686 7.12162 34.3089C7.86922 33.0491 9.03542 32.0919 10.4167 31.6042V18.3959C9.02611 17.9044 7.85402 16.9372 7.10763 15.6651C6.36125 14.3929 6.08862 12.8979 6.33794 11.4443C6.58727 9.99058 7.34249 8.67185 8.47011 7.72116C9.59773 6.77047 11.0251 6.24905 12.5 6.24905C13.975 6.24905 15.4024 6.77047 16.53 7.72116C17.6576 8.67185 18.4128 9.99058 18.6622 11.4443C18.9115 12.8979 18.6389 14.3929 17.8925 15.6651C17.1461 16.9372 15.974 17.9044 14.5834 18.3959V25.0001C16.325 23.6917 18.4875 22.9167 20.8334 22.9167H29.1667C30.5379 22.9171 31.8711 22.4666 32.961 21.6346C34.0509 20.8026 34.8369 19.6353 35.198 18.3126C33.8296 17.7707 32.6962 16.7635 31.9974 15.4682C31.2986 14.1729 31.0792 12.6726 31.3777 11.2314C31.6763 9.79026 32.4736 8.50061 33.6295 7.58952C34.7854 6.67844 36.2256 6.20433 37.6966 6.25066C39.1677 6.29699 40.5752 6.8608 41.6714 7.84281C42.7677 8.82483 43.4823 10.1621 43.6896 11.6192C43.8969 13.0763 43.5834 14.5598 42.8045 15.8086C42.0256 17.0573 40.8311 17.9912 39.4313 18.4459C39.0121 20.8642 37.7525 23.0567 35.8746 24.637C33.9966 26.2172 31.621 27.0836 29.1667 27.0834H20.8334C19.4622 27.083 18.129 27.5335 17.0391 28.3655C15.9492 29.1975 15.1632 30.3648 14.8021 31.6876Z" fill="white"/>
</svg>
