<svg width="30" height="30" viewBox="0 0 30 30" fill="none" xmlns="http://www.w3.org/2000/svg">
<path d="M7.5 7.5H9.375V11.25H7.5V7.5ZM7.5 13.125H9.375V16.875H7.5V13.125ZM13.125 7.5H15V11.25H13.125V7.5ZM13.125 13.125H15V16.875H13.125V13.125ZM7.5 18.75H9.375V22.5H7.5V18.75ZM13.125 18.75H15V22.5H13.125V18.75Z" fill="#3BD8FF"/>
<path d="M28.125 13.125C28.125 12.6277 27.9275 12.1508 27.5758 11.7992C27.2242 11.4475 26.7473 11.25 26.25 11.25H20.625V3.75C20.625 3.25272 20.4275 2.77581 20.0758 2.42417C19.7242 2.07254 19.2473 1.875 18.75 1.875H3.75C3.25272 1.875 2.77581 2.07254 2.42417 2.42417C2.07254 2.77581 1.875 3.25272 1.875 3.75V28.125H28.125V13.125ZM3.75 3.75H18.75V26.25H3.75V3.75ZM20.625 26.25V13.125H26.25V26.25H20.625Z" fill="#3BD8FF"/>
</svg>
