<svg width="39" height="38" viewBox="0 0 39 38" fill="none" xmlns="http://www.w3.org/2000/svg">
<path d="M13.5528 0.147949H22.588V9.56419H13.5528V0.147949ZM0 28.3967H9.0352V37.8129H0V28.3967ZM0 14.2723H9.0352V23.6886H0V14.2723ZM0 0.147949H9.0352V9.56419H0V0.147949ZM22.588 19.9691V14.2723H13.5528V23.6886H19.0191L22.588 19.9691ZM38.1286 17.3091L35.4858 14.5548C35.3998 14.4651 35.2976 14.394 35.1852 14.3454C35.0728 14.2969 34.9524 14.2719 34.8307 14.2719C34.709 14.2719 34.5886 14.2969 34.4762 14.3454C34.3638 14.394 34.2617 14.4651 34.1757 14.5548L32.1879 16.6264L36.1408 20.746L38.1286 18.6744C38.2146 18.5848 38.2829 18.4784 38.3295 18.3612C38.376 18.2441 38.4 18.1185 38.4 17.9917C38.4 17.8649 38.376 17.7394 38.3295 17.6222C38.2829 17.5051 38.2146 17.3987 38.1286 17.3091ZM15.8116 33.6933V37.8129H19.7645L34.8307 22.1113L30.8778 17.9917L15.8116 33.6933ZM27.1056 0.147949H36.1408V9.56419H27.1056V0.147949Z" fill="white"/>
</svg>
