<svg width="70" height="70" viewBox="0 0 70 70" fill="none" xmlns="http://www.w3.org/2000/svg">
<g clip-path="url(#clip0_1547_2434)">
<path d="M57.5556 2.50073C59.2647 2.50073 60.9039 3.1797 62.1125 4.38827C63.321 5.59683 64 7.236 64 8.94518V47.6118C64 49.321 63.321 50.9602 62.1125 52.1688C60.9039 53.3773 59.2647 54.0563 57.5556 54.0563H51.1111V60.5007C51.1111 62.2099 50.4321 63.8491 49.2236 65.0576C48.015 66.2662 46.3758 66.9452 44.6667 66.9452H12.4444C10.7353 66.9452 9.0961 66.2662 7.88753 65.0576C6.67897 63.8491 6 62.2099 6 60.5007V21.8341C6 20.1249 6.67897 18.4857 7.88753 17.2772C9.0961 16.0686 10.7353 15.3896 12.4444 15.3896H18.8889V8.94518C18.8889 7.236 19.5679 5.59683 20.7764 4.38827C21.985 3.1797 23.6242 2.50073 25.3333 2.50073H57.5556ZM45.6667 20.8341H11.4444V61.5007H45.6667V20.8341ZM28.5556 44.3896C29.4101 44.3896 30.2297 44.7291 30.834 45.3334C31.4383 45.9377 31.7778 46.7573 31.7778 47.6118C31.7778 48.4664 31.4383 49.286 30.834 49.8903C30.2297 50.4946 29.4101 50.8341 28.5556 50.8341H22.1111C21.2565 50.8341 20.4369 50.4946 19.8327 49.8903C19.2284 49.286 18.8889 48.4664 18.8889 47.6118C18.8889 46.7573 19.2284 45.9377 19.8327 45.3334C20.4369 44.7291 21.2565 44.3896 22.1111 44.3896H28.5556ZM58.5556 7.94518H24.3333V15.3896H44.6667C46.3758 15.3896 48.015 16.0686 49.2236 17.2772C50.4321 18.4857 51.1111 20.1249 51.1111 21.8341V48.6118H58.5556V7.94518ZM35 31.5007C35.8213 31.5016 36.6112 31.8161 37.2084 32.3799C37.8056 32.9437 38.165 33.7142 38.2131 34.5341C38.2612 35.354 37.9945 36.1613 37.4674 36.7911C36.9402 37.4209 36.1925 37.8256 35.377 37.9226L35 37.9452H22.1111C21.2898 37.9443 20.4999 37.6298 19.9027 37.066C19.3055 36.5022 18.9461 35.7317 18.898 34.9118C18.8499 34.0919 19.1166 33.2846 19.6437 32.6548C20.1709 32.025 20.9186 31.6203 21.7341 31.5233L22.1111 31.5007H35Z" fill="#333333"/>
</g>
<defs>
<clipPath id="clip0_1547_2434">
<rect width="70" height="70" fill="white"/>
</clipPath>
</defs>
</svg>
