<svg width="54" height="54" viewBox="0 0 54 54" fill="none" xmlns="http://www.w3.org/2000/svg">
<path d="M7.66406 21.4771V50.0623C7.66406 50.5763 7.8522 51.0692 8.18709 51.4327C8.52197 51.7961 8.97618 52.0003 9.44978 52.0003H20.1641V35.5274C20.1641 34.7564 20.4463 34.017 20.9486 33.4719C21.4509 32.9267 22.1322 32.6205 22.8426 32.6205H31.7712C32.4816 32.6205 33.1629 32.9267 33.6652 33.4719C34.1676 34.017 34.4498 34.7564 34.4498 35.5274V52.0003H45.1641C45.6377 52.0003 46.0919 51.7961 46.4268 51.4327C46.7616 51.0692 46.9498 50.5763 46.9498 50.0623V21.4771" stroke="#333333" stroke-width="4" stroke-linecap="round" stroke-linejoin="round"/>
<path d="M52 27.1917L28.2154 2.48238C27.6574 1.84285 26.3527 1.83558 25.7846 2.48238L2 27.1917M43.0714 17.8651V3.93587H37.7143V12.2934" stroke="#333333" stroke-width="4" stroke-linecap="round" stroke-linejoin="round"/>
</svg>
