<svg width="50" height="50" viewBox="0 0 50 50" fill="none" xmlns="http://www.w3.org/2000/svg">
<g clip-path="url(#clip0_790_965)">
<path d="M8.33341 41.6668C7.18758 41.6668 6.20703 41.2592 5.39175 40.4439C4.57647 39.6286 4.16814 38.6474 4.16675 37.5002V12.5002C4.16675 11.3543 4.57508 10.3738 5.39175 9.5585C6.20841 8.74322 7.18897 8.33488 8.33341 8.3335H41.6667C42.8126 8.3335 43.7938 8.74183 44.6105 9.5585C45.4272 10.3752 45.8348 11.3557 45.8334 12.5002V20.7814H41.6667V16.6668L25.0001 27.0835L8.33341 16.6668V37.5002H33.3334V41.6668H8.33341ZM25.0001 22.9168L41.6667 12.5002H8.33341L25.0001 22.9168ZM39.5834 41.6668C38.9931 41.6668 38.4987 41.4668 38.1001 41.0668C37.7015 40.6668 37.5015 40.1724 37.5001 39.5835V33.3335C37.5001 32.7432 37.7001 32.2488 38.1001 31.8502C38.5001 31.4516 38.9945 31.2516 39.5834 31.2502V29.1668C39.5834 28.021 39.9917 27.0404 40.8084 26.2252C41.6251 25.4099 42.6056 25.0016 43.7501 25.0002C44.8945 24.9988 45.8758 25.4071 46.6938 26.2252C47.5119 27.0432 47.9195 28.0238 47.9167 29.1668V31.2502C48.507 31.2502 49.0022 31.4502 49.4022 31.8502C49.8022 32.2502 50.0015 32.7446 50.0001 33.3335V39.5835C50.0001 40.1738 49.8001 40.6689 49.4001 41.0689C49.0001 41.4689 48.5056 41.6682 47.9167 41.6668H39.5834ZM41.6667 31.2502H45.8334V29.1668C45.8334 28.5766 45.6334 28.0821 45.2334 27.6835C44.8334 27.2849 44.339 27.0849 43.7501 27.0835C43.1612 27.0821 42.6667 27.2821 42.2667 27.6835C41.8667 28.0849 41.6667 28.5793 41.6667 29.1668V31.2502Z" fill="white"/>
</g>
<defs>
<clipPath id="clip0_790_965">
<rect width="50" height="50" fill="white"/>
</clipPath>
</defs>
</svg>
