<svg width="50" height="50" viewBox="0 0 50 50" fill="none" xmlns="http://www.w3.org/2000/svg">
<path d="M19.5833 4.1665H7.5C6.80964 4.1665 6.25 4.72615 6.25 5.4165V13.3332C6.25 14.0235 6.80964 14.5832 7.5 14.5832H19.5833C20.2737 14.5832 20.8333 14.0235 20.8333 13.3332V5.4165C20.8333 4.72615 20.2737 4.1665 19.5833 4.1665Z" fill="white" stroke="white" stroke-width="1.5"/>
<path d="M31.0416 35.4165H18.9583C18.2679 35.4165 17.7083 35.9761 17.7083 36.6665V44.5832C17.7083 45.2735 18.2679 45.8332 18.9583 45.8332H31.0416C31.7319 45.8332 32.2916 45.2735 32.2916 44.5832V36.6665C32.2916 35.9761 31.7319 35.4165 31.0416 35.4165Z" fill="white" stroke="white" stroke-width="1.5"/>
<path d="M42.5001 4.1665H30.4167C29.7264 4.1665 29.1667 4.72615 29.1667 5.4165V13.3332C29.1667 14.0235 29.7264 14.5832 30.4167 14.5832H42.5001C43.1904 14.5832 43.7501 14.0235 43.7501 13.3332V5.4165C43.7501 4.72615 43.1904 4.1665 42.5001 4.1665Z" fill="white" stroke="white" stroke-width="1.5"/>
<path d="M13.5417 14.583V21.8747C13.5417 22.9797 13.9807 24.0396 14.7621 24.821C15.5435 25.6024 16.6033 26.0413 17.7084 26.0413H32.2917C33.3968 26.0413 34.4566 25.6024 35.238 24.821C36.0194 24.0396 36.4584 22.9797 36.4584 21.8747V14.583M25.0001 26.0413V35.4163" stroke="white" stroke-width="1.5"/>
</svg>
