<svg width="47" height="50" viewBox="0 0 47 50" fill="none" xmlns="http://www.w3.org/2000/svg">
<path d="M36.3998 30.75C37.0803 28.9792 37.4498 27.0833 37.4498 25C37.4498 23.5 37.2359 22.0625 36.8664 20.7292C35.6026 21.0417 34.2803 21.2083 32.8998 21.2083C30.0725 21.2116 27.2859 20.4865 24.775 19.0942C22.264 17.7019 20.1023 15.6832 18.472 13.2083C16.7297 17.7307 13.4392 21.368 9.27478 23.375C9.19701 23.8958 9.19701 24.4583 9.19701 25C9.19701 26.989 9.56265 28.9585 10.2731 30.7961C10.9835 32.6336 12.0247 34.3033 13.3374 35.7097C15.9884 38.5501 19.584 40.1458 23.3331 40.1458C25.3748 40.1458 27.3387 39.6667 29.1081 38.8125C30.2164 41.0833 30.722 42.2083 30.6831 42.2083C27.4942 43.3542 25.0248 43.9167 23.3331 43.9167C18.6276 43.9167 14.1359 41.9375 10.8303 38.375C8.81793 36.229 7.32309 33.5906 6.47478 30.6875H3.88867V21.2083H6.00812C6.65025 17.8594 8.12657 14.7592 10.2804 12.2366C12.4343 9.71411 15.1853 7.86335 18.2416 6.88075C21.298 5.89815 24.5455 5.82036 27.6398 6.65564C30.734 7.49092 33.5595 9.20811 35.8164 11.625C38.266 14.2408 39.9373 17.5756 40.6192 21.2083H42.7776V30.6875H42.6609L35.7387 37.5L25.4331 36.25V32.7708H34.8248L36.3998 30.75ZM18.0248 24.5208C18.6081 24.5208 19.172 24.7708 19.5803 25.2292C19.9907 25.6724 20.221 26.2715 20.221 26.8958C20.221 27.5202 19.9907 28.1192 19.5803 28.5625C19.172 29 18.6081 29.25 18.0248 29.25C16.7998 29.25 15.8081 28.2083 15.8081 26.8958C15.8081 25.5833 16.7998 24.5208 18.0248 24.5208ZM28.622 24.5208C29.847 24.5208 30.8192 25.5833 30.8192 26.8958C30.8192 28.2083 29.847 29.25 28.622 29.25C27.397 29.25 26.4053 28.2083 26.4053 26.8958C26.4053 26.2659 26.6389 25.6619 27.0546 25.2165C27.4703 24.7711 28.0341 24.5208 28.622 24.5208Z" fill="#01255A"/>
</svg>
