<svg width="50" height="50" viewBox="0 0 50 50" fill="none" xmlns="http://www.w3.org/2000/svg">
<path fill-rule="evenodd" clip-rule="evenodd" d="M38.8813 40.728C38.0125 41.6874 37.8844 43.1561 38.725 44.1405C39.5688 45.1218 41.0594 45.2436 41.9531 44.3061C45.122 40.9866 47.2465 36.8099 48.0633 32.294C48.8801 27.7781 48.3532 23.1218 46.5479 18.9026C44.7426 14.6835 41.7383 11.0871 37.9079 8.55973C34.0774 6.03232 29.5892 4.68506 25 4.68506C20.4109 4.68506 15.9227 6.03232 12.0922 8.55973C8.26169 11.0871 5.25747 14.6835 3.45217 18.9026C1.64687 23.1218 1.11993 27.7781 1.93672 32.294C2.75351 36.8099 4.87808 40.9866 8.04689 44.3061C8.94064 45.2436 10.4313 45.1218 11.2719 44.1405C12.1156 43.1561 11.9906 41.6874 11.1156 40.728C8.67439 38.0395 7.06641 34.6999 6.48704 31.1149C5.90768 27.5299 6.38185 23.8538 7.85196 20.5331C9.32208 17.2125 11.7249 14.3902 14.7684 12.4091C17.812 10.4281 21.3654 9.3735 24.9969 9.3735C28.6284 9.3735 32.1818 10.4281 35.2253 12.4091C38.2689 14.3902 40.6717 17.2125 42.1418 20.5331C43.6119 23.8538 44.0861 27.5299 43.5067 31.1149C42.9274 34.6999 41.3194 38.0395 38.8781 40.728M35.7938 37.1343C34.9656 38.128 33.4656 38.0061 32.6219 37.0218C31.7781 36.0405 31.925 34.5718 32.6688 33.5124C33.6551 32.108 34.2371 30.4597 34.3512 28.7473C34.4652 27.0349 34.1071 25.324 33.3157 23.8012C32.5243 22.2783 31.3301 21.0019 29.8632 20.1111C28.3964 19.2202 26.7131 18.7492 24.9969 18.7492C23.2807 18.7492 21.5974 19.2202 20.1305 20.1111C18.6637 21.0019 17.4694 22.2783 16.6781 23.8012C15.8867 25.324 15.5285 27.0349 15.6426 28.7473C15.7567 30.4597 16.3386 32.108 17.325 33.5124C18.0688 34.5718 18.2125 36.0405 17.3719 37.0218C16.5281 38.0061 15.0281 38.128 14.2 37.1343C12.487 35.0815 11.3946 32.5829 11.051 29.9315C10.7074 27.28 11.1268 24.5855 12.26 22.1639C13.3932 19.7423 15.1932 17.6939 17.4491 16.2589C19.705 14.8239 22.3233 14.0617 24.9969 14.0617C27.6705 14.0617 30.2888 14.8239 32.5447 16.2589C34.8005 17.6939 36.6006 19.7423 37.7338 22.1639C38.867 24.5855 39.2864 27.28 38.9428 29.9315C38.5992 32.5829 37.5068 35.0815 35.7938 37.1343ZM25 32.8124C26.2432 32.8124 27.4355 32.3185 28.3146 31.4394C29.1937 30.5604 29.6875 29.3681 29.6875 28.1249C29.6875 26.8817 29.1937 25.6894 28.3146 24.8103C27.4355 23.9312 26.2432 23.4374 25 23.4374C23.7568 23.4374 22.5645 23.9312 21.6854 24.8103C20.8064 25.6894 20.3125 26.8817 20.3125 28.1249C20.3125 29.3681 20.8064 30.5604 21.6854 31.4394C22.5645 32.3185 23.7568 32.8124 25 32.8124Z" fill="#3BD8FF"/>
</svg>
