<svg width="47" height="50" viewBox="0 0 47 50" fill="none" xmlns="http://www.w3.org/2000/svg">
<path d="M12.8724 22.4792C15.6724 28.375 20.1835 33.1875 25.6863 36.2083L29.9641 31.625C30.4891 31.0625 31.2668 30.875 31.9474 31.125C34.1252 31.8958 36.4779 32.3125 38.8891 32.3125C39.9585 32.3125 40.8335 33.25 40.8335 34.3958V41.6667C40.8335 42.8125 39.9585 43.75 38.8891 43.75C20.6307 43.75 5.8335 27.8958 5.8335 8.33333C5.8335 7.1875 6.7085 6.25 7.77794 6.25H14.5835C15.6529 6.25 16.5279 7.1875 16.5279 8.33333C16.5279 10.9375 16.9168 13.4375 17.6363 15.7708C17.8502 16.5 17.6946 17.3125 17.1502 17.8958L12.8724 22.4792Z" fill="#01255A"/>
</svg>
