<svg width="50" height="50" viewBox="0 0 50 50" fill="none" xmlns="http://www.w3.org/2000/svg">
<g clip-path="url(#clip0_790_910)">
<path d="M27.0834 35.4167V39.5833H29.1667C29.7192 39.5833 30.2491 39.8028 30.6398 40.1935C31.0305 40.5842 31.25 41.1141 31.25 41.6667H45.8334V45.8333H31.25C31.25 46.3859 31.0305 46.9158 30.6398 47.3065C30.2491 47.6972 29.7192 47.9167 29.1667 47.9167H20.8334C20.2808 47.9167 19.7509 47.6972 19.3602 47.3065C18.9695 46.9158 18.75 46.3859 18.75 45.8333H4.1667V41.6667H18.75C18.75 41.1141 18.9695 40.5842 19.3602 40.1935C19.7509 39.8028 20.2808 39.5833 20.8334 39.5833H22.9167V35.4167H27.0834ZM49.375 15.9792C49.75 16.3542 50 16.8542 50 17.4375C50 18.0208 49.7709 18.5417 49.3959 18.9167L44.2292 24.0833C43.8542 24.4583 43.3334 24.6875 42.7084 24.6875C42.1875 24.6875 41.6667 24.4792 41.2917 24.1042C39.5834 22.5833 37.7709 21.2708 35.7292 20.25C35.0417 19.9167 34.5625 19.1875 34.5625 18.375V11.9167C31.5417 10.9375 28.3125 10.4167 25 10.4167C21.6667 10.4167 18.4375 10.9375 15.4167 11.9375V18.3958C15.4167 19.2292 14.9375 19.9375 14.25 20.2708C12.2292 21.2917 10.3542 22.5833 8.70837 24.125C8.31146 24.5028 7.78338 24.7118 7.23541 24.7079C6.68744 24.704 6.16238 24.4876 5.77087 24.1042L0.604201 18.9375C0.411115 18.7428 0.258354 18.512 0.154678 18.2581C0.0510018 18.0043 -0.00155037 17.7325 3.48214e-05 17.4583C3.48214e-05 16.875 0.229201 16.3542 0.604201 15.9792C6.95837 9.95833 15.5417 6.25 25 6.25C34.4375 6.25 43.0209 9.95833 49.375 15.9792ZM22.9167 20.8333V31.25H20.8334V20.8333H22.9167ZM25 20.8333H31.25V27.0833H27.0834V31.25H25V20.8333ZM29.1667 25V22.9167H27.0834V25H29.1667Z" fill="white"/>
</g>
<defs>
<clipPath id="clip0_790_910">
<rect width="50" height="50" fill="white"/>
</clipPath>
</defs>
</svg>
