<svg width="50" height="50" viewBox="0 0 50 50" fill="none" xmlns="http://www.w3.org/2000/svg">
<g clip-path="url(#clip0_1342_1998)">
<path d="M34.375 21.875C34.375 27.0625 30.1875 31.25 25 31.25C19.8125 31.25 15.625 27.0625 15.625 21.875C15.625 16.6875 19.8125 12.5 25 12.5C30.1875 12.5 34.375 16.6875 34.375 21.875Z" fill="#3BD8FF"/>
<path fill-rule="evenodd" clip-rule="evenodd" d="M50 25C50 38.8125 38.8125 50 25 50C11.1875 50 0 38.8125 0 25C0 11.1875 11.1875 0 25 0C38.8125 0 50 11.1875 50 25ZM12.5 42.9688C13 42.1375 17.8437 34.375 24.9687 34.375C32.0625 34.375 36.9375 42.1563 37.4375 42.9688C40.3433 40.9593 42.7176 38.2741 44.3561 35.1441C45.9946 32.0141 46.8483 28.5329 46.8437 25C46.8437 12.9063 37.0625 3.125 24.9687 3.125C12.875 3.125 3.09375 12.9063 3.09375 25C3.09375 32.4375 6.8125 39.0313 12.5 42.9688Z" fill="#3BD8FF"/>
</g>
<defs>
<clipPath id="clip0_1342_1998">
<rect width="50" height="50" fill="white"/>
</clipPath>
</defs>
</svg>
