<svg width="45" height="45" viewBox="0 0 45 45" fill="none" xmlns="http://www.w3.org/2000/svg">
<path fill-rule="evenodd" clip-rule="evenodd" d="M34.9931 36.6553C34.2113 37.5188 34.0959 38.8406 34.8525 39.7266C35.6119 40.6097 36.9534 40.7194 37.7578 39.8756C40.6098 36.8881 42.5219 33.129 43.257 29.0647C43.9921 25.0004 43.5178 20.8097 41.8931 17.0125C40.2683 13.2153 37.5645 9.97855 34.1171 7.70388C30.6696 5.42921 26.6303 4.21667 22.5 4.21667C18.3698 4.21667 14.3304 5.42921 10.883 7.70388C7.43552 9.97855 4.73172 13.2153 3.10695 17.0125C1.48219 20.8097 1.00794 25.0004 1.74305 29.0647C2.47816 33.129 4.39027 36.8881 7.2422 39.8756C8.04657 40.7194 9.38814 40.6097 10.1447 39.7266C10.9041 38.8406 10.7916 37.5188 10.0041 36.6553C7.80695 34.2357 6.35977 31.23 5.83834 28.0035C5.31691 24.777 5.74366 21.4685 7.06677 18.4799C8.38987 15.4913 10.5524 12.9513 13.2916 11.1684C16.0308 9.3854 19.2288 8.43628 22.4972 8.43628C25.7656 8.43628 28.9636 9.3854 31.7028 11.1684C34.442 12.9513 36.6045 15.4913 37.9276 18.4799C39.2507 21.4685 39.6775 24.777 39.1561 28.0035C38.6346 31.23 37.1874 34.2357 34.9903 36.6553M32.2144 33.421C31.4691 34.3153 30.1191 34.2056 29.3597 33.3197C28.6003 32.4366 28.7325 31.1147 29.4019 30.1613C30.2896 28.8973 30.8134 27.4139 30.916 25.8727C31.0187 24.3315 30.6964 22.7918 29.9841 21.4212C29.2719 20.0506 28.1971 18.9019 26.8769 18.1001C25.5567 17.2983 24.0418 16.8744 22.4972 16.8744C20.9526 16.8744 19.4377 17.2983 18.1175 18.1001C16.7973 18.9019 15.7225 20.0506 15.0103 21.4212C14.298 22.7918 13.9757 24.3315 14.0784 25.8727C14.181 27.4139 14.7048 28.8973 15.5925 30.1613C16.2619 31.1147 16.3913 32.4366 15.6347 33.3197C14.8753 34.2056 13.5253 34.3153 12.78 33.421C11.2383 31.5735 10.2552 29.3248 9.9459 26.9384C9.63665 24.5521 10.0141 22.1271 11.034 19.9476C12.0539 17.7682 13.6739 15.9246 15.7042 14.6331C17.7345 13.3416 20.0909 12.6556 22.4972 12.6556C24.9035 12.6556 27.2599 13.3416 29.2902 14.6331C31.3205 15.9246 32.9405 17.7682 33.9604 19.9476C34.9803 22.1271 35.3577 24.5521 35.0485 26.9384C34.7392 29.3248 33.7561 31.5735 32.2144 33.421ZM22.5 29.5313C23.6189 29.5313 24.6919 29.0868 25.4831 28.2956C26.2743 27.5045 26.7188 26.4314 26.7188 25.3125C26.7188 24.1936 26.2743 23.1206 25.4831 22.3294C24.6919 21.5382 23.6189 21.0938 22.5 21.0938C21.3811 21.0938 20.3081 21.5382 19.5169 22.3294C18.7257 23.1206 18.2813 24.1936 18.2813 25.3125C18.2813 26.4314 18.7257 27.5045 19.5169 28.2956C20.3081 29.0868 21.3811 29.5313 22.5 29.5313Z" fill="white"/>
</svg>
