<svg width="50" height="50" viewBox="0 0 50 50" fill="none" xmlns="http://www.w3.org/2000/svg">
<path d="M25.0001 6.25L4.16675 25H10.4167V41.6667H39.5834V25H45.8334L25.0001 6.25ZM25.0001 17.7083C29.8751 17.7083 34.2917 19.6458 37.5001 22.7917L35.0001 25.25C32.3334 22.6293 28.7389 21.169 25.0001 21.1875C21.0834 21.1875 17.5417 22.7292 15.0001 25.25L12.5001 22.7917C15.8376 19.5216 20.3276 17.6956 25.0001 17.7083ZM25.0001 24.6458C27.9167 24.6458 30.5626 25.8125 32.5001 27.7083L30.0001 30.1458C28.6651 28.8393 26.868 28.113 25.0001 28.125C23.0417 28.125 21.2709 28.8958 20.0001 30.1458L17.5001 27.7083C19.5013 25.7428 22.1951 24.6429 25.0001 24.6458ZM25.0001 31.6042C26.9584 31.6042 28.5417 33.1458 28.5417 35.0625C28.5417 36.9792 26.9584 38.5417 25.0001 38.5417C23.0417 38.5417 21.4584 36.9792 21.4584 35.0625C21.4584 33.1458 23.0417 31.6042 25.0001 31.6042Z" fill="white"/>
</svg>
