<svg width="50" height="50" viewBox="0 0 50 50" fill="none" xmlns="http://www.w3.org/2000/svg">
<path d="M48.4376 26.5625C48.0232 26.5625 47.6257 26.7271 47.3327 27.0202C47.0397 27.3132 46.8751 27.7106 46.8751 28.125V31.25H38.1466L34.5704 27.668L44.4024 17.834C44.988 17.248 45.317 16.4535 45.317 15.625C45.317 14.7966 44.988 14.002 44.4024 13.416L33.4649 2.47853C33.1747 2.18827 32.8302 1.95802 32.451 1.80093C32.0718 1.64384 31.6654 1.56299 31.255 1.56299C30.8445 1.56299 30.4381 1.64384 30.0589 1.80093C29.6797 1.95802 29.3352 2.18827 29.045 2.47853L0.570388 31.043C0.297875 31.3164 0.112472 31.6643 0.0375924 32.043C-0.0372877 32.4217 0.00171226 32.814 0.149668 33.1705C0.297623 33.5271 0.547899 33.8317 0.868893 34.0461C1.18989 34.2605 1.5672 34.3749 1.9532 34.375H9.64265L16.5411 41.2715C17.1271 41.8571 17.9216 42.1861 18.7501 42.1861C19.5785 42.1861 20.3731 41.8571 20.9591 41.2715L32.3555 29.8828L35.9376 33.459C36.2267 33.7504 36.5709 33.9815 36.9501 34.1388C37.3293 34.296 37.736 34.3763 38.1466 34.375H46.8751V37.5C46.8751 37.9144 47.0397 38.3118 47.3327 38.6049C47.6257 38.8979 48.0232 39.0625 48.4376 39.0625C48.852 39.0625 49.2494 38.8979 49.5424 38.6049C49.8355 38.3118 50.0001 37.9144 50.0001 37.5V28.125C50.0001 27.7106 49.8355 27.3132 49.5424 27.0202C49.2494 26.7271 48.852 26.5625 48.4376 26.5625ZM31.2501 4.68752L33.7286 7.16603L9.64265 31.25H4.77742L31.2501 4.68752ZM18.7501 39.0625L12.5001 32.8125L35.9376 9.37502L42.1876 15.625L18.7501 39.0625Z" fill="white"/>
</svg>
