<svg width="47" height="50" viewBox="0 0 47 50" fill="none" xmlns="http://www.w3.org/2000/svg">
<path d="M38.8887 8.33334H7.77756C5.63867 8.33334 3.90812 10.2083 3.90812 12.5L3.88867 37.5C3.88867 39.7917 5.63867 41.6667 7.77756 41.6667H38.8887C41.0276 41.6667 42.7776 39.7917 42.7776 37.5V12.5C42.7776 10.2083 41.0276 8.33334 38.8887 8.33334ZM38.1109 17.1875L24.3637 26.3958C23.7414 26.8125 22.9248 26.8125 22.3026 26.3958L8.55534 17.1875C8.36036 17.0702 8.18963 16.9118 8.05346 16.7218C7.91729 16.5318 7.81852 16.3141 7.76312 16.082C7.70773 15.8499 7.69687 15.6082 7.7312 15.3715C7.76552 15.1348 7.84433 14.908 7.96283 14.7048C8.08134 14.5017 8.23708 14.3264 8.42064 14.1896C8.6042 14.0528 8.81175 13.9573 9.03075 13.909C9.24974 13.8606 9.47561 13.8604 9.69469 13.9082C9.91378 13.9561 10.1215 14.0511 10.3053 14.1875L23.3331 22.9167L36.3609 14.1875C36.5447 14.0511 36.7525 13.9561 36.9715 13.9082C37.1906 13.8604 37.4165 13.8606 37.6355 13.909C37.8545 13.9573 38.062 14.0528 38.2456 14.1896C38.4292 14.3264 38.5849 14.5017 38.7034 14.7048C38.8219 14.908 38.9007 15.1348 38.935 15.3715C38.9694 15.6082 38.9585 15.8499 38.9031 16.082C38.8477 16.3141 38.7489 16.5318 38.6128 16.7218C38.4766 16.9118 38.3059 17.0702 38.1109 17.1875Z" fill="#01255A"/>
</svg>
