<svg width="50" height="50" viewBox="0 0 50 50" fill="none" xmlns="http://www.w3.org/2000/svg">
<path d="M22.9165 29.1667H18.7498C18.7498 24.1939 20.7253 19.4247 24.2416 15.9084C27.7579 12.3921 32.527 10.4167 37.4998 10.4167V14.5833C29.4373 14.5833 22.9165 21.1042 22.9165 29.1667ZM37.4998 22.9167V18.75C31.7498 18.75 27.0832 23.4167 27.0832 29.1667H31.2498C31.2498 25.7083 34.0415 22.9167 37.4998 22.9167ZM14.5832 8.33334C14.5832 6.02084 12.729 4.16667 10.4165 4.16667C8.104 4.16667 6.24984 6.02084 6.24984 8.33334C6.24984 10.6458 8.104 12.5 10.4165 12.5C12.729 12.5 14.5832 10.6458 14.5832 8.33334ZM23.854 9.37501H19.6873C19.4456 10.8303 18.6951 12.1526 17.5697 13.1064C16.4442 14.0602 15.0168 14.5835 13.5415 14.5833H7.2915C5.56234 14.5833 4.1665 15.9792 4.1665 17.7083V22.9167H16.6665V18.2083C18.5968 17.5996 20.3063 16.4385 21.5837 14.8685C22.8611 13.2986 23.6504 11.3887 23.854 9.37501ZM39.5832 35.4167C41.8957 35.4167 43.7498 33.5625 43.7498 31.25C43.7498 28.9375 41.8957 27.0833 39.5832 27.0833C37.2707 27.0833 35.4165 28.9375 35.4165 31.25C35.4165 33.5625 37.2707 35.4167 39.5832 35.4167ZM42.7082 37.5H36.4582C34.9829 37.5002 33.5555 36.9768 32.43 36.023C31.3045 35.0693 30.5541 33.747 30.3123 32.2917H26.1457C26.3492 34.3054 27.1385 36.2153 28.416 37.7852C29.6934 39.3551 31.4029 40.5163 33.3332 41.125V45.8333H45.8332V40.625C45.8332 38.8958 44.4373 37.5 42.7082 37.5Z" fill="#3BD8FF"/>
</svg>
