<svg width="50" height="50" viewBox="0 0 50 50" fill="none" xmlns="http://www.w3.org/2000/svg">
<path d="M12.5 45.8333C10.7639 45.8333 9.28819 45.2257 8.07292 44.0104C6.85764 42.7951 6.25 41.3195 6.25 39.5833V33.3333H12.5V4.16667H43.75V39.5833C43.75 41.3195 43.1424 42.7951 41.9271 44.0104C40.7118 45.2257 39.2361 45.8333 37.5 45.8333H12.5ZM37.5 41.6667C38.0903 41.6667 38.5854 41.4667 38.9854 41.0667C39.3854 40.6667 39.5847 40.1722 39.5833 39.5833V8.33334H16.6667V33.3333H35.4167V39.5833C35.4167 40.1736 35.6167 40.6688 36.0167 41.0688C36.4167 41.4688 36.9111 41.6681 37.5 41.6667ZM18.75 18.75V14.5833H37.5V18.75H18.75ZM18.75 25V20.8333H37.5V25H18.75ZM12.5 41.6667H31.25V37.5H10.4167V39.5833C10.4167 40.1736 10.6167 40.6688 11.0167 41.0688C11.4167 41.4688 11.9111 41.6681 12.5 41.6667ZM12.5 41.6667H10.4167H31.25H12.5Z" fill="#3BD8FF"/>
</svg>
