<svg width="25" height="25" viewBox="0 0 25 25" fill="none" xmlns="http://www.w3.org/2000/svg">
<g clip-path="url(#clip0_1533_1056)">
<path d="M9.4705 1H15.1175V6.75H9.4705V1ZM1 18.25H6.647V24H1V18.25ZM1 9.625H6.647V15.375H1V9.625ZM1 1H6.647V6.75H1V1ZM15.1175 13.1038V9.625H9.4705V15.375H12.8869L15.1175 13.1038ZM24.8303 11.4794L23.1786 9.7975C23.1248 9.74273 23.061 9.69929 22.9908 9.66965C22.9205 9.64001 22.8452 9.62475 22.7692 9.62475C22.6932 9.62475 22.6179 9.64001 22.5476 9.66965C22.4774 9.69929 22.4135 9.74273 22.3598 9.7975L21.1174 11.0625L23.588 13.5781L24.8303 12.3131C24.8841 12.2584 24.9268 12.1934 24.9559 12.1219C24.985 12.0503 25 11.9737 25 11.8962C25 11.8188 24.985 11.7422 24.9559 11.6706C24.9268 11.5991 24.8841 11.5341 24.8303 11.4794ZM10.8823 21.4844V24H13.3528L22.7692 14.4119L20.2986 11.8962L10.8823 21.4844ZM17.941 1H23.588V6.75H17.941V1Z" fill="#333333"/>
</g>
<defs>
<clipPath id="clip0_1533_1056">
<rect width="25" height="25" fill="white"/>
</clipPath>
</defs>
</svg>
