<svg width="70" height="100" viewBox="0 0 70 100" fill="none" xmlns="http://www.w3.org/2000/svg">
<g clip-path="url(#clip0_3458_1333)">
<path d="M19.3005 74.0772C22.2027 77.763 24.8441 81.6454 27.2059 85.6963C29.2222 89.5061 30.0628 92.0895 31.5363 96.6799C32.44 99.2162 33.2568 99.9731 35.0128 99.9731C36.9263 99.9731 37.7945 98.6854 38.4652 96.6939C39.8581 92.3587 40.951 89.0502 42.6753 85.9241C46.0589 79.8887 50.2632 74.5255 54.3943 69.371C55.5127 67.9121 62.7435 59.4132 65.9987 52.7072C65.9987 52.7072 69.9997 45.3407 69.9997 35.0527C69.9997 25.4293 66.054 18.7549 66.054 18.7549L54.694 21.7865L47.7952 39.893L46.0884 42.3898L45.7471 42.8421L45.2932 43.4083L44.4964 44.3126L43.3578 45.447L37.2145 50.4344L21.8555 59.2715L19.3005 74.0772Z" fill="#34A853"/>
<path d="M3.44849 51.4692C7.19704 60.0014 14.4256 67.5016 19.3163 74.0837L45.2932 43.4204C45.2932 43.4204 41.6335 48.1899 34.995 48.1899C27.6004 48.1899 21.6266 42.3057 21.6266 34.8861C21.6266 29.7981 24.6984 26.3027 24.6984 26.3027L7.0647 31.0112L3.44849 51.4692Z" fill="#FBBC04"/>
<path d="M45.5833 1.57715C54.2108 4.34908 61.5952 10.1684 66.0618 18.7496L45.3011 43.403C45.3011 43.403 48.3729 39.8444 48.3729 34.788C48.3729 27.1957 41.9572 21.5237 35.0264 21.5237C28.4724 21.5237 24.7083 26.2853 24.7083 26.2853V10.754L45.5833 1.57715Z" fill="#4285F4"/>
<path d="M8.20728 12.47C13.3602 6.32643 22.4274 0 34.9279 0C40.9927 0 45.5618 1.58665 45.5618 1.58665L24.6887 26.2986H9.89985L8.20728 12.47Z" fill="#1A73E8"/>
<path d="M3.44859 51.4689C3.44859 51.4689 0 44.7392 0 34.9899C0 25.7754 3.59461 17.721 8.20723 12.4697L24.7004 26.3005L3.44859 51.4689Z" fill="#EA4335"/>
</g>
<defs>
<clipPath id="clip0_3458_1333">
<rect width="70" height="100" fill="white"/>
</clipPath>
</defs>
</svg>
