<svg width="30" height="30" viewBox="0 0 30 30" fill="none" xmlns="http://www.w3.org/2000/svg">
<g clip-path="url(#clip0_748_4730)">
<path fill-rule="evenodd" clip-rule="evenodd" d="M24.9214 0.529289C24.7599 0.39189 24.5727 0.287826 24.3707 0.223097C24.1688 0.158368 23.956 0.134254 23.7447 0.152144C23.5333 0.170034 23.3276 0.229575 23.1394 0.327335C22.9512 0.425095 22.7842 0.55914 22.6481 0.721743C22.5119 0.884346 22.4093 1.07229 22.3461 1.27475C22.2829 1.4772 22.2604 1.69016 22.2799 1.90134C22.2994 2.11253 22.3605 2.31777 22.4597 2.50523C22.5589 2.69268 22.6942 2.85866 22.8579 2.99357C23.9936 3.94286 24.9493 5.22 25.6307 6.735C26.3185 8.28705 26.6921 9.95995 26.73 11.6571C26.691 13.3554 26.316 15.029 25.6264 16.5814C24.9934 18.0212 24.0424 19.2989 22.845 20.3186C22.5174 20.5914 22.3115 20.9831 22.2727 21.4077C22.234 21.8323 22.3654 22.2549 22.6382 22.5825C22.911 22.9101 23.3028 23.116 23.7274 23.1548C24.1519 23.1935 24.5745 23.0621 24.9021 22.7893C26.445 21.5036 27.6879 19.8257 28.5557 17.9036C29.4374 15.9243 29.9097 13.7872 29.9443 11.6207C29.9011 9.48147 29.4312 7.37238 28.5621 5.41715C27.7306 3.53541 26.4863 1.86488 24.9214 0.529289ZM11.4643 18.5657C11.193 18.8939 10.8026 19.101 10.3787 19.1416C9.95484 19.1822 9.5322 19.0529 9.20357 18.7821C8.18162 17.9283 7.365 16.8554 6.81429 15.6429C6.23436 14.3682 5.92081 12.9886 5.89286 11.5886C5.93125 10.2185 6.24307 8.86998 6.81 7.62215C7.35996 6.40557 8.17741 5.32882 9.20143 4.47215C9.3632 4.33098 9.55162 4.22367 9.75556 4.15653C9.9595 4.0894 10.1748 4.06381 10.3888 4.08127C10.6028 4.09874 10.8111 4.1589 11.0015 4.25822C11.1918 4.35753 11.3604 4.49398 11.4971 4.6595C11.6339 4.82503 11.736 5.01628 11.7976 5.22195C11.8593 5.42763 11.879 5.64356 11.8558 5.85701C11.8326 6.07045 11.7668 6.27707 11.6624 6.46468C11.558 6.65228 11.417 6.81706 11.2479 6.94929C10.597 7.49802 10.0784 8.18655 9.73071 8.96357C9.35065 9.80437 9.13881 10.7114 9.10714 11.6336C9.14143 12.5764 9.36 13.4871 9.73286 14.2971C10.1121 15.12 10.6371 15.8014 11.2457 16.305C11.4087 16.4392 11.5436 16.6042 11.6428 16.7906C11.742 16.9769 11.8035 17.181 11.8238 17.3911C11.8441 17.6013 11.8228 17.8134 11.7611 18.0153C11.6994 18.2172 11.5986 18.4049 11.4643 18.5679V18.5657ZM18.48 4.74857C18.7513 4.42038 19.1417 4.21325 19.5656 4.17267C19.9894 4.13209 20.4121 4.26138 20.7407 4.53215C21.7521 5.36572 22.5621 6.44572 23.1279 7.67357C23.7078 8.94819 24.0213 10.3278 24.0493 11.7279C24.0109 13.0979 23.6991 14.4465 23.1321 15.6943C22.5834 16.9122 21.7666 17.9904 20.7429 18.8486C20.5808 18.9887 20.3924 19.095 20.1887 19.1612C19.9849 19.2275 19.77 19.2523 19.5566 19.2343C19.3431 19.2163 19.1354 19.1558 18.9457 19.0564C18.7559 18.957 18.588 18.8206 18.4517 18.6553C18.3154 18.49 18.2135 18.2992 18.1521 18.0939C18.0906 17.8887 18.0708 17.6733 18.0938 17.4603C18.1168 17.2473 18.1822 17.0411 18.286 16.8537C18.3899 16.6664 18.5301 16.5017 18.6986 16.3693C19.3093 15.8657 19.8343 15.18 20.2157 14.355C20.5886 13.5429 20.805 12.6279 20.8371 11.685C20.804 10.7649 20.5914 9.86009 20.2114 9.02143C19.8635 8.24752 19.3465 7.56142 18.6986 7.01357C18.5358 6.87922 18.401 6.71411 18.302 6.52767C18.203 6.34123 18.1417 6.13711 18.1216 5.92698C18.1015 5.71685 18.123 5.50481 18.1849 5.30298C18.2467 5.10116 18.3477 4.9135 18.4821 4.75072L18.48 4.74857ZM7.28571 22.5857C7.15013 22.7476 6.98397 22.8812 6.79673 22.9788C6.6095 23.0764 6.40486 23.1362 6.19451 23.1547C5.98416 23.1732 5.77223 23.1501 5.57082 23.0867C5.36942 23.0232 5.18249 22.9207 5.02071 22.785C3.45666 21.4492 2.21312 19.7787 1.38214 17.8971C0.503547 15.9194 0.0334348 13.7846 0 11.6207C0.0443352 9.47886 0.516445 7.36748 1.38857 5.41072C2.22156 3.52639 3.47156 1.85582 5.04429 0.525003C5.37192 0.252209 5.79451 0.120741 6.21908 0.159521C6.4293 0.178723 6.63369 0.239144 6.82056 0.337334C7.00744 0.435523 7.17314 0.56956 7.30821 0.731789C7.44329 0.894018 7.54509 1.08126 7.6078 1.28283C7.6705 1.48441 7.6929 1.69635 7.6737 1.90658C7.65449 2.11681 7.59407 2.32119 7.49588 2.50806C7.39769 2.69494 7.26366 2.86064 7.10143 2.99572C5.90398 4.01542 4.95305 5.2931 4.32 6.73286C3.62972 8.28512 3.25391 9.95879 3.21429 11.6571C3.25284 13.3545 3.62719 15.0274 4.31571 16.5793C4.94768 18.0181 5.89452 19.2966 7.08643 20.3207C7.24846 20.4562 7.38222 20.6222 7.48004 20.8094C7.57787 20.9965 7.63785 21.2011 7.65656 21.4115C7.67527 21.6218 7.65233 21.8338 7.58907 22.0353C7.5258 22.2368 7.42131 22.4238 7.28571 22.5857ZM15 8.30572C14.2209 8.30616 13.4645 8.56803 12.8519 9.0494C12.2393 9.53076 11.8059 10.2038 11.6212 10.9607C11.4365 11.7175 11.5111 12.5145 11.8331 13.224C12.1551 13.9334 12.7058 14.5143 13.3971 14.8736L13.3929 15V28.1764C13.3929 28.6027 13.5622 29.0115 13.8636 29.3129C14.165 29.6142 14.5738 29.7836 15 29.7836C15.4262 29.7836 15.835 29.6142 16.1364 29.3129C16.4378 29.0115 16.6071 28.6027 16.6071 28.1764V15C16.6071 14.9571 16.6057 14.915 16.6029 14.8736C17.296 14.5156 17.8486 13.9349 18.1719 13.2249C18.4952 12.515 18.5705 11.7169 18.3855 10.959C18.2006 10.2011 17.7662 9.52744 17.1521 9.04621C16.5381 8.56499 15.7801 8.30419 15 8.30572Z" fill="#3BD8FF"/>
</g>
<defs>
<clipPath id="clip0_748_4730">
<rect width="30" height="30" fill="white"/>
</clipPath>
</defs>
</svg>
