<svg width="50" height="50" viewBox="0 0 50 50" fill="none" xmlns="http://www.w3.org/2000/svg">
<path d="M14.0625 10.9375C14.9254 10.9375 15.625 10.2379 15.625 9.375C15.625 8.51206 14.9254 7.8125 14.0625 7.8125C13.1996 7.8125 12.5 8.51206 12.5 9.375C12.5 10.2379 13.1996 10.9375 14.0625 10.9375Z" fill="white"/>
<path d="M40.625 3.125H9.375C8.5462 3.125 7.75134 3.45424 7.16529 4.04029C6.57924 4.62634 6.25 5.4212 6.25 6.25V12.5C6.25 13.3288 6.57924 14.1237 7.16529 14.7097C7.75134 15.2958 8.5462 15.625 9.375 15.625H23.4375V21.875H26.5625V15.625H40.625C41.4538 15.625 42.2487 15.2958 42.8347 14.7097C43.4208 14.1237 43.75 13.3288 43.75 12.5V6.25C43.75 5.4212 43.4208 4.62634 42.8347 4.04029C42.2487 3.45424 41.4538 3.125 40.625 3.125ZM40.625 12.5H9.375V6.25H40.625V12.5ZM26.5625 43.75V40.625H23.4375V43.75H6.25V46.875H43.75V43.75H26.5625Z" fill="white"/>
<path d="M14.0625 32.8125C14.9254 32.8125 15.625 32.1129 15.625 31.25C15.625 30.3871 14.9254 29.6875 14.0625 29.6875C13.1996 29.6875 12.5 30.3871 12.5 31.25C12.5 32.1129 13.1996 32.8125 14.0625 32.8125Z" fill="white"/>
<path d="M9.375 37.5H40.625C41.4538 37.5 42.2487 37.1708 42.8347 36.5847C43.4208 35.9987 43.75 35.2038 43.75 34.375V28.125C43.75 27.2962 43.4208 26.5013 42.8347 25.9153C42.2487 25.3292 41.4538 25 40.625 25H9.375C8.5462 25 7.75134 25.3292 7.16529 25.9153C6.57924 26.5013 6.25 27.2962 6.25 28.125V34.375C6.25 35.2038 6.57924 35.9987 7.16529 36.5847C7.75134 37.1708 8.5462 37.5 9.375 37.5ZM9.375 28.125H40.625V34.375H9.375V28.125Z" fill="white"/>
</svg>
