<svg width="25" height="25" viewBox="0 0 25 25" fill="none" xmlns="http://www.w3.org/2000/svg">
<path fill-rule="evenodd" clip-rule="evenodd" d="M3.90625 3.125C3.69905 3.125 3.50034 3.20731 3.35382 3.35382C3.20731 3.50034 3.125 3.69905 3.125 3.90625V21.0938C3.125 21.301 3.20731 21.4997 3.35382 21.6462C3.50034 21.7927 3.69905 21.875 3.90625 21.875H21.0938C21.301 21.875 21.4997 21.7927 21.6462 21.6462C21.7927 21.4997 21.875 21.301 21.875 21.0938V3.90625C21.875 3.69905 21.7927 3.50034 21.6462 3.35382C21.4997 3.20731 21.301 3.125 21.0938 3.125H3.90625ZM6.25 9.375H15.625V7.8125H6.25V9.375ZM17.1875 9.375H18.75V7.8125H17.1875V9.375ZM15.625 13.2812H6.25V11.7188H15.625V13.2812ZM17.1875 13.2812H18.75V11.7188H17.1875V13.2812ZM15.625 17.1875H6.25V15.625H15.625V17.1875ZM17.1875 17.1875H18.75V15.625H17.1875V17.1875Z" fill="#333333"/>
</svg>
