<svg width="40" height="40" viewBox="0 0 40 40" fill="none" xmlns="http://www.w3.org/2000/svg">
<path fill-rule="evenodd" clip-rule="evenodd" d="M6.25 5C5.91848 5 5.60054 5.1317 5.36612 5.36612C5.1317 5.60054 5 5.91848 5 6.25V33.75C5 34.0815 5.1317 34.3995 5.36612 34.6339C5.60054 34.8683 5.91848 35 6.25 35H33.75C34.0815 35 34.3995 34.8683 34.6339 34.6339C34.8683 34.3995 35 34.0815 35 33.75V6.25C35 5.91848 34.8683 5.60054 34.6339 5.36612C34.3995 5.1317 34.0815 5 33.75 5H6.25ZM10 15H25V12.5H10V15ZM27.5 15H30V12.5H27.5V15ZM25 21.25H10V18.75H25V21.25ZM27.5 21.25H30V18.75H27.5V21.25ZM25 27.5H10V25H25V27.5ZM27.5 27.5H30V25H27.5V27.5Z" fill="white"/>
</svg>
