<svg width="50" height="50" viewBox="0 0 50 50" fill="none" xmlns="http://www.w3.org/2000/svg">
<path d="M25 21.875H28.125V25H25V21.875ZM31.25 21.875H34.375V25H31.25V21.875ZM37.5 21.875H40.625V25H37.5V21.875ZM25 28.125H28.125V31.25H25V28.125ZM31.25 28.125H34.375V31.25H31.25V28.125ZM37.5 28.125H40.625V31.25H37.5V28.125ZM25 34.375H28.125V37.5H25V34.375ZM31.25 34.375H34.375V37.5H31.25V34.375ZM37.5 34.375H40.625V37.5H37.5V34.375ZM25 15.625H40.625V18.75H25V15.625Z" fill="white"/>
<path d="M43.75 9.375H21.875V7.8125C21.8738 6.98408 21.5441 6.18994 20.9583 5.60416C20.3726 5.01838 19.5784 4.68874 18.75 4.6875H12.5C11.6716 4.68874 10.8774 5.01838 10.2917 5.60416C9.70588 6.18994 9.37624 6.98408 9.375 7.8125V9.375H6.25C5.42158 9.37624 4.62744 9.70588 4.04166 10.2917C3.45588 10.8774 3.12624 11.6716 3.125 12.5V40.625C3.12624 41.4534 3.45588 42.2476 4.04166 42.8333C4.62744 43.4191 5.42158 43.7488 6.25 43.75H43.75C44.5784 43.7488 45.3726 43.4191 45.9583 42.8333C46.5441 42.2476 46.8738 41.4534 46.875 40.625V12.5C46.8738 11.6716 46.5441 10.8774 45.9583 10.2917C45.3726 9.70588 44.5784 9.37624 43.75 9.375ZM12.5 7.8125H18.75V34.375H12.5V7.8125ZM43.75 40.625H6.25V12.5H9.375V34.375C9.37624 35.2034 9.70588 35.9976 10.2917 36.5833C10.8774 37.1691 11.6716 37.4988 12.5 37.5H18.75C19.5784 37.4988 20.3726 37.1691 20.9583 36.5833C21.5441 35.9976 21.8738 35.2034 21.875 34.375V12.5H43.75V40.625Z" fill="white"/>
</svg>
