<svg width="25" height="25" viewBox="0 0 25 25" fill="none" xmlns="http://www.w3.org/2000/svg">
<g clip-path="url(#clip0_1534_1228)">
<path d="M18.333 18.3333H16.6663V16.6667H18.333V18.3333ZM13.333 18.3333H14.9997V16.6667H13.333V18.3333ZM21.6663 18.3333H19.9997V16.6667H21.6663V18.3333Z" fill="#333333"/>
<path fill-rule="evenodd" clip-rule="evenodd" d="M5 10V5.83333C5 5.06729 5.15088 4.30875 5.44404 3.60101C5.73719 2.89328 6.16687 2.25022 6.70854 1.70854C7.25022 1.16687 7.89328 0.737188 8.60101 0.444036C9.30875 0.150884 10.0673 0 10.8333 0C11.5994 0 12.3579 0.150884 13.0657 0.444036C13.7734 0.737188 14.4164 1.16687 14.9581 1.70854C15.4998 2.25022 15.9295 2.89328 16.2226 3.60101C16.5158 4.30875 16.6667 5.06729 16.6667 5.83333V10H19.1667C19.8297 10 20.4656 10.2634 20.9344 10.7322C21.4033 11.2011 21.6667 11.837 21.6667 12.5V13.4167C22.6086 13.6079 23.4554 14.1189 24.0636 14.8631C24.6719 15.6073 25.0042 16.5389 25.0042 17.5C25.0042 18.4611 24.6719 19.3927 24.0636 20.1369C23.4554 20.8811 22.6086 21.3921 21.6667 21.5833V22.5C21.6667 23.163 21.4033 23.7989 20.9344 24.2678C20.4656 24.7366 19.8297 25 19.1667 25H2.5C1.83696 25 1.20107 24.7366 0.732233 24.2678C0.263392 23.7989 0 23.163 0 22.5L0 12.5C0 11.837 0.263392 11.2011 0.732233 10.7322C1.20107 10.2634 1.83696 10 2.5 10H5ZM6.66667 5.83333C6.66667 4.72826 7.10565 3.66846 7.88705 2.88706C8.66846 2.10565 9.72826 1.66667 10.8333 1.66667C11.9384 1.66667 12.9982 2.10565 13.7796 2.88706C14.561 3.66846 15 4.72826 15 5.83333V10H6.66667V5.83333ZM14.1667 15C13.5036 15 12.8677 15.2634 12.3989 15.7322C11.9301 16.2011 11.6667 16.837 11.6667 17.5C11.6667 18.163 11.9301 18.7989 12.3989 19.2678C12.8677 19.7366 13.5036 20 14.1667 20H20.8333C21.4964 20 22.1323 19.7366 22.6011 19.2678C23.0699 18.7989 23.3333 18.163 23.3333 17.5C23.3333 16.837 23.0699 16.2011 22.6011 15.7322C22.1323 15.2634 21.4964 15 20.8333 15H14.1667Z" fill="#333333"/>
</g>
<defs>
<clipPath id="clip0_1534_1228">
<rect width="25" height="25" fill="white"/>
</clipPath>
</defs>
</svg>
