<svg width="50" height="50" viewBox="0 0 50 50" fill="none" xmlns="http://www.w3.org/2000/svg">
<path d="M17.2232 30.5833C16.8399 30.5833 16.5816 30.6208 16.4482 30.6583V33.1125C16.6066 33.15 16.8045 33.1604 17.0774 33.1604C18.0753 33.1604 18.6899 32.6563 18.6899 31.8042C18.6899 31.0417 18.1607 30.5833 17.2232 30.5833ZM24.4878 30.6083C24.0712 30.6083 23.8003 30.6458 23.6399 30.6833V36.1208C23.8003 36.1583 24.0587 36.1583 24.292 36.1583C25.9941 36.1708 27.1024 35.2333 27.1024 33.25C27.1149 31.5208 26.1045 30.6083 24.4878 30.6083Z" fill="white"/>
<path d="M29.1663 4.16666H12.4997C11.3946 4.16666 10.3348 4.60564 9.5534 5.38704C8.77199 6.16845 8.33301 7.22825 8.33301 8.33332V41.6667C8.33301 42.7717 8.77199 43.8315 9.5534 44.6129C10.3348 45.3943 11.3946 45.8333 12.4997 45.8333H37.4997C38.6047 45.8333 39.6645 45.3943 40.446 44.6129C41.2274 43.8315 41.6663 42.7717 41.6663 41.6667V16.6667L29.1663 4.16666ZM19.7872 33.7292C19.1434 34.3333 18.1934 34.6042 17.0872 34.6042C16.8726 34.6082 16.6581 34.5957 16.4455 34.5667V37.5375H14.583V29.3375C15.4236 29.2125 16.2728 29.1554 17.1226 29.1667C18.283 29.1667 19.108 29.3875 19.6643 29.8312C20.1934 30.2521 20.5518 30.9417 20.5518 31.7542C20.5497 32.5708 20.2788 33.2604 19.7872 33.7292ZM27.7184 36.5521C26.8434 37.2792 25.5122 37.625 23.8851 37.625C22.9101 37.625 22.2205 37.5625 21.7518 37.5V29.3396C22.5926 29.2173 23.4416 29.1595 24.2913 29.1667C25.8684 29.1667 26.8934 29.45 27.6934 30.0542C28.558 30.6958 29.0997 31.7187 29.0997 33.1875C29.0997 34.7771 28.5184 35.875 27.7184 36.5521ZM35.4163 30.7708H32.2247V32.6687H35.208V34.1979H32.2247V37.5396H30.3372V29.2292H35.4163V30.7708ZM29.1663 18.75H27.083V8.33332L37.4997 18.75H29.1663Z" fill="white"/>
</svg>
