<svg width="20" height="18" viewBox="0 0 20 18" fill="none" xmlns="http://www.w3.org/2000/svg">
<g clip-path="url(#clip0_790_921)">
<path d="M2.85714 14.6429V16.7857C2.85714 16.8899 2.82366 16.9754 2.7567 17.0424C2.68973 17.1094 2.60417 17.1429 2.5 17.1429H0.357143C0.252976 17.1429 0.167411 17.1094 0.100446 17.0424C0.0334821 16.9754 0 16.8899 0 16.7857V14.6429C0 14.5387 0.0334821 14.4531 0.100446 14.3862C0.167411 14.3192 0.252976 14.2857 0.357143 14.2857H2.5C2.60417 14.2857 2.68973 14.3192 2.7567 14.3862C2.82366 14.4531 2.85714 14.5387 2.85714 14.6429ZM7.14286 13.2143V16.7857C7.14286 16.8899 7.10938 16.9754 7.04241 17.0424C6.97545 17.1094 6.88988 17.1429 6.78571 17.1429H4.64286C4.53869 17.1429 4.45312 17.1094 4.38616 17.0424C4.3192 16.9754 4.28571 16.8899 4.28571 16.7857V13.2143C4.28571 13.1101 4.3192 13.0246 4.38616 12.9576C4.45312 12.8906 4.53869 12.8571 4.64286 12.8571H6.78571C6.88988 12.8571 6.97545 12.8906 7.04241 12.9576C7.10938 13.0246 7.14286 13.1101 7.14286 13.2143ZM11.4286 10.3571V16.7857C11.4286 16.8899 11.3951 16.9754 11.3281 17.0424C11.2612 17.1094 11.1756 17.1429 11.0714 17.1429H8.92857C8.8244 17.1429 8.73884 17.1094 8.67188 17.0424C8.60491 16.9754 8.57143 16.8899 8.57143 16.7857V10.3571C8.57143 10.253 8.60491 10.1674 8.67188 10.1004C8.73884 10.0335 8.8244 10 8.92857 10H11.0714C11.1756 10 11.2612 10.0335 11.3281 10.1004C11.3951 10.1674 11.4286 10.253 11.4286 10.3571ZM15.7143 6.07143V16.7857C15.7143 16.8899 15.6808 16.9754 15.6138 17.0424C15.5469 17.1094 15.4613 17.1429 15.3571 17.1429H13.2143C13.1101 17.1429 13.0246 17.1094 12.9576 17.0424C12.8906 16.9754 12.8571 16.8899 12.8571 16.7857V6.07143C12.8571 5.96726 12.8906 5.8817 12.9576 5.81473C13.0246 5.74777 13.1101 5.71429 13.2143 5.71429H15.3571C15.4613 5.71429 15.5469 5.74777 15.6138 5.81473C15.6808 5.8817 15.7143 5.96726 15.7143 6.07143ZM20 0.357143V16.7857C20 16.8899 19.9665 16.9754 19.8996 17.0424C19.8326 17.1094 19.747 17.1429 19.6429 17.1429H17.5C17.3958 17.1429 17.3103 17.1094 17.2433 17.0424C17.1763 16.9754 17.1429 16.8899 17.1429 16.7857V0.357143C17.1429 0.252976 17.1763 0.167411 17.2433 0.100446C17.3103 0.0334821 17.3958 0 17.5 0H19.6429C19.747 0 19.8326 0.0334821 19.8996 0.100446C19.9665 0.167411 20 0.252976 20 0.357143Z" fill="#3BD8FF"/>
</g>
<defs>
<clipPath id="clip0_790_921">
<rect width="20" height="17.1429" fill="white"/>
</clipPath>
</defs>
</svg>
