<svg width="50" height="50" viewBox="0 0 50 50" fill="none" xmlns="http://www.w3.org/2000/svg">
<path d="M34.375 21.7773H15.625C15.4102 21.7773 15.2344 21.9531 15.2344 22.168V41.7969C15.2344 42.0117 15.4102 42.1875 15.625 42.1875H34.375C34.5898 42.1875 34.7656 42.0117 34.7656 41.7969V22.168C34.7656 21.9531 34.5898 21.7773 34.375 21.7773ZM18.3594 24.9023H31.6406V30.6152H18.3594V24.9023ZM31.6406 39.0625H18.3594V33.3496H31.6406V39.0625Z" fill="white"/>
<path d="M20.7031 36.5234C20.7031 36.9378 20.8677 37.3353 21.1608 37.6283C21.4538 37.9213 21.8512 38.0859 22.2656 38.0859C22.68 38.0859 23.0775 37.9213 23.3705 37.6283C23.6635 37.3353 23.8281 36.9378 23.8281 36.5234C23.8281 36.109 23.6635 35.7116 23.3705 35.4186C23.0775 35.1256 22.68 34.9609 22.2656 34.9609C21.8512 34.9609 21.4538 35.1256 21.1608 35.4186C20.8677 35.7116 20.7031 36.109 20.7031 36.5234ZM20.7031 27.832C20.7031 28.2464 20.8677 28.6439 21.1608 28.9369C21.4538 29.2299 21.8512 29.3945 22.2656 29.3945C22.68 29.3945 23.0775 29.2299 23.3705 28.9369C23.6635 28.6439 23.8281 28.2464 23.8281 27.832C23.8281 27.4176 23.6635 27.0202 23.3705 26.7272C23.0775 26.4342 22.68 26.2695 22.2656 26.2695C21.8512 26.2695 21.4538 26.4342 21.1608 26.7272C20.8677 27.0202 20.7031 27.4176 20.7031 27.832Z" fill="white"/>
<path d="M39.619 18.0127C37.3827 12.1094 31.6845 7.91016 25.0097 7.91016C18.3349 7.91016 12.6366 12.1045 10.4003 18.0078C6.19619 19.1162 3.10049 22.959 3.1249 27.5195C3.1542 32.6172 7.10927 36.7627 12.0897 37.207C12.3192 37.2266 12.5145 37.0459 12.5145 36.8164V33.8672C12.5145 33.6719 12.3681 33.5059 12.1728 33.4814C10.8544 33.3154 9.60927 32.7393 8.65224 31.7969C7.48037 30.6494 6.83584 29.1064 6.83584 27.4707C6.83584 26.1035 7.28017 24.8145 8.11513 23.7402C8.93056 22.6953 10.078 21.9385 11.3427 21.6064L13.1933 21.1182L13.872 19.3262C14.2919 18.2129 14.8778 17.168 15.6151 16.2256C16.3427 15.2881 17.2069 14.4678 18.1737 13.7842C20.1806 12.373 22.5438 11.626 25.0097 11.626C27.4755 11.626 29.8388 12.373 31.8456 13.7891C32.8173 14.4727 33.6767 15.293 34.4042 16.2305C35.1415 17.1729 35.7274 18.2178 36.1474 19.3311L36.8212 21.1182L38.6669 21.6064C41.3134 22.3096 43.164 24.7168 43.164 27.4658C43.164 29.1064 42.5194 30.6445 41.3476 31.792C40.3954 32.7295 39.1552 33.3105 37.8368 33.4766C37.6415 33.501 37.4999 33.667 37.4999 33.8623V36.8164C37.4999 37.0459 37.7001 37.2266 37.9296 37.207C42.8954 36.7578 46.8407 32.6172 46.8749 27.5293C46.9042 22.9687 43.8134 19.126 39.619 18.0127Z" fill="white"/>
</svg>
