<svg width="47" height="50" viewBox="0 0 47 50" fill="none" xmlns="http://www.w3.org/2000/svg">
<path d="M38.8887 4.16666H7.77756C6.74701 4.16666 5.75534 4.60416 5.03589 5.39582C4.29701 6.16666 3.88867 7.22916 3.88867 8.33332V33.3333C3.88867 34.4375 4.29701 35.5 5.03589 36.2708C5.75534 37.0625 6.74701 37.5 7.77756 37.5H15.5553L23.3331 45.8333L31.1109 37.5H38.8887C39.9192 37.5 40.9109 37.0625 41.6303 36.2708C42.3498 35.4792 42.7776 34.4375 42.7776 33.3333V8.33332C42.7776 7.22916 42.3692 6.16666 41.6303 5.39582C40.9109 4.60416 39.9192 4.16666 38.8887 4.16666ZM19.5414 12.5833C20.5914 11.8333 21.972 11.4583 23.7026 11.4583C25.5303 11.4583 26.9887 11.8958 28.0387 12.75C29.0887 13.625 29.6137 14.7917 29.6137 16.25C29.6137 17.1667 29.322 17.9792 28.7581 18.75C28.1942 19.5 27.4553 20.0833 26.5609 20.5208C26.0553 20.8333 25.7248 21.1458 25.5498 21.5C25.3748 21.875 25.2776 22.3333 25.2776 22.9167H21.3887C21.3887 21.875 21.5831 21.1667 21.9526 20.6667C22.3609 20.1667 23.022 19.5833 24.0331 18.9167C24.5387 18.625 24.947 18.25 25.2776 17.7917C25.5498 17.3542 25.7053 16.8333 25.7053 16.25C25.7053 15.625 25.5303 15.1667 25.1803 14.8125C24.8303 14.4375 24.3053 14.2708 23.7026 14.2708C23.1776 14.2708 22.7498 14.4167 22.3609 14.7083C22.0498 15 21.8553 15.4375 21.8553 16.0208H18.0248C17.9276 14.5833 18.472 13.3333 19.5414 12.5833ZM21.3887 29.1667V25H25.2776V29.1667H21.3887Z" fill="#01255A"/>
</svg>
