<svg width="100" height="100" viewBox="0 0 100 100" fill="none" xmlns="http://www.w3.org/2000/svg">
<g clip-path="url(#clip0_3458_1339)">
<path d="M55.0749 0C41.3124 0 28.4791 6.20833 19.6791 17.2833C13.3666 25.2542 10.0541 35.0833 10.0541 45.225V52.4708C10.0541 56.1958 7.47077 59.7125 2.29577 60.025C1.0541 60.1292 0.0165992 60.9583 0.0165992 62.2C-0.191734 65.6167 3.43327 71.825 8.39993 76.7917C11.8166 80.3083 15.8499 83.1042 20.1999 85.275C19.8781 87.0749 19.9551 88.9235 20.4254 90.6904C20.8958 92.4574 21.748 94.0996 22.9221 95.5013C24.0962 96.903 25.5635 98.0301 27.2205 98.8031C28.8775 99.5761 30.684 99.9761 32.5124 99.975C35.3859 99.9967 38.1772 99.0165 40.406 97.2028C42.6349 95.3891 44.1621 92.8554 44.7249 90.0375H55.1791C56.5249 97.075 63.8708 101.937 71.7374 99.2458C78.5708 96.9708 81.5708 89.2083 79.0833 82.8958C81.8151 81.0965 84.3784 79.0535 86.7416 76.7917C90.9524 72.6219 94.2923 67.6566 96.567 62.1845C98.8417 56.7124 100.006 50.8427 99.9916 44.9167C99.9916 32.9083 95.3333 21.6292 86.8458 13.1458C78.3875 4.76958 66.9788 0.0489669 55.0749 0ZM55.0749 5.07083C65.7333 5.07083 75.7708 9.2125 83.3249 16.7667C87.0446 20.469 89.9934 24.8719 92.0009 29.7208C94.0084 34.5698 95.0348 39.7686 95.0208 45.0167C95.0365 50.2649 94.0117 55.4641 92.0056 60.3138C89.9995 65.1635 87.0519 69.5674 83.3333 73.2708C75.8241 80.7374 65.6727 84.9402 55.0833 84.9667H44.8333C44.2596 82.1461 42.7332 79.6088 40.5103 77.7803C38.2873 75.9519 35.5032 74.9437 32.6249 74.925C30.5307 74.9242 28.4691 75.4444 26.626 76.4387C24.7829 77.433 23.216 78.8702 22.0666 80.6208V80.7208C18.326 78.817 14.9316 76.2986 12.0249 73.2708C8.50827 69.7542 6.5416 66.5458 5.71243 64.4792C8.0201 63.9281 10.1107 62.7007 11.7166 60.9542C13.8626 58.6525 15.0476 55.6177 15.0291 52.4708V45.0167C15.0291 36.225 17.9291 27.5292 23.4124 20.5958C31.1749 10.6583 42.6583 5.07083 55.0749 5.07083ZM45.0333 30.0125C44.3811 30.012 43.7352 30.1401 43.1326 30.3895C42.53 30.639 41.9825 31.0049 41.5215 31.4662C41.0606 31.9276 40.6951 32.4754 40.4462 33.0782C40.1972 33.681 40.0697 34.327 40.0708 34.9792C40.0691 35.6321 40.1964 36.2788 40.4454 36.8824C40.6944 37.486 41.0601 38.0344 41.5215 38.4963C41.983 38.9581 42.5312 39.3243 43.1345 39.5738C43.7379 39.8232 44.3845 39.9511 45.0374 39.95C45.69 39.9506 46.3362 39.8223 46.9391 39.5726C47.5419 39.3229 48.0896 38.9566 48.5506 38.4948C49.0117 38.033 49.377 37.4847 49.6257 36.8814C49.8744 36.2782 50.0016 35.6317 49.9999 34.9792C50.001 34.3266 49.8733 33.6803 49.6241 33.0772C49.3749 32.4741 49.0091 31.9262 48.5477 31.4648C48.0863 31.0033 47.5383 30.6375 46.9352 30.3883C46.3321 30.1391 45.6858 30.0114 45.0333 30.0125ZM75.0499 30.0125C74.3974 30.0114 73.7511 30.1391 73.148 30.3883C72.5449 30.6375 71.9969 31.0033 71.5355 31.4648C71.0741 31.9262 70.7083 32.4741 70.4591 33.0772C70.2099 33.6803 70.0822 34.3266 70.0833 34.9792C70.0816 35.6321 70.2089 36.2788 70.4579 36.8824C70.7069 37.486 71.0726 38.0344 71.534 38.4963C71.9955 38.9581 72.5437 39.3243 73.147 39.5738C73.7504 39.8232 74.397 39.9511 75.0499 39.95C75.7028 39.9511 76.3495 39.8232 76.9529 39.5738C77.5562 39.3243 78.1044 38.9581 78.5658 38.4963C79.0273 38.0344 79.393 37.486 79.642 36.8824C79.8909 36.2788 80.0182 35.6321 80.0166 34.9792C80.0177 34.3266 79.89 33.6803 79.6408 33.0772C79.3916 32.4741 79.0258 31.9262 78.5643 31.4648C78.1029 31.0033 77.555 30.6375 76.9519 30.3883C76.3488 30.1391 75.7025 30.0114 75.0499 30.0125ZM44.3124 49.8833C43.8944 49.8802 43.4823 49.9826 43.1144 50.1811C42.7465 50.3796 42.4347 50.6677 42.2078 51.0189C41.981 51.37 41.8464 51.7727 41.8166 52.1896C41.7868 52.6066 41.8628 53.0244 42.0374 53.4042C43.6578 56.8375 46.2201 59.7399 49.4259 61.7736C52.6317 63.8073 56.3493 64.8886 60.1458 64.8917C63.9473 64.9096 67.6742 63.837 70.8846 61.8009C74.0949 59.7648 76.654 56.8507 78.2583 53.4042C78.4331 53.024 78.509 52.6059 78.479 52.1886C78.4491 51.7713 78.3141 51.3683 78.0868 51.0171C77.8594 50.6658 77.547 50.3778 77.1785 50.1796C76.81 49.9814 76.3975 49.8795 75.9791 49.8833H75.8749C75.4098 49.8811 74.9546 50.018 74.5678 50.2763C74.1809 50.5347 73.8802 50.9028 73.7041 51.3333C72.4935 53.905 70.5753 56.0785 68.1741 57.5994C65.7729 59.1202 62.9881 59.9255 60.1458 59.9208C57.3034 59.9255 54.5186 59.1202 52.1174 57.5994C49.7162 56.0785 47.798 53.905 46.5874 51.3333C46.3714 50.9112 46.0467 50.5543 45.6468 50.2994C45.2469 50.0445 44.7863 49.9009 44.3124 49.8833Z" fill="black"/>
</g>
<defs>
<clipPath id="clip0_3458_1339">
<rect width="100" height="100" fill="white"/>
</clipPath>
</defs>
</svg>
